<svg width="40" height="40" viewBox="0 0 40 40" fill="none" xmlns="http://www.w3.org/2000/svg">
<circle cx="20" cy="20" r="20" fill="white"/>
<circle cx="20" cy="20" r="19.5" stroke="black" stroke-opacity="0.05"/>
<path d="M30.763 28.9049C29.577 28.1347 28.8402 26.7434 28.8402 25.2742V19.3244C28.8402 16.8328 27.9206 14.4907 26.2511 12.7292C25.3707 11.8007 24.3122 11.0768 23.1574 10.6105V9.33115C23.1574 8.44125 22.8291 7.60444 22.2325 6.97556C21.636 6.3464 20.8434 6 20.0002 6C18.2595 6 16.843 7.49454 16.843 9.33115V10.611C15.3195 11.2282 13.962 12.2966 12.9666 13.6737C11.785 15.3087 11.1601 17.2629 11.1601 19.3247V25.2744C11.1601 26.7437 10.4233 28.135 9.23731 28.9052C9.04717 29.0286 8.95815 29.2701 9.01892 29.4963C9.07945 29.7227 9.27553 29.8792 9.49843 29.8792H16.5817C16.8234 31.6405 18.2667 33 20 33C21.7333 33 23.1764 31.6405 23.4183 29.8792H30.5016C30.7245 29.8792 30.9205 29.7229 30.9811 29.4963C31.0418 29.2701 30.9528 29.0286 30.7627 28.9052L30.763 28.9049ZM15.7864 19.1473H14.457C14.457 17.8387 14.8542 16.5981 15.6055 15.5602C16.3323 14.5559 17.3633 13.8105 18.5086 13.4608L18.8782 14.8081C17.0577 15.3639 15.7863 17.1484 15.7863 19.1474L15.7864 19.1473ZM21.4959 10.1303C21.004 10.0417 20.5039 9.99708 20.0004 9.99708C19.4969 9.99708 18.9967 10.0417 18.5049 10.1303V9.33083C18.5049 8.461 19.176 7.75294 20.0004 7.75294C20.3999 7.75294 20.7754 7.91699 21.0579 8.21504C21.3404 8.51309 21.4959 8.90932 21.4959 9.33083V10.1303Z" fill="black" fill-opacity="0.4"/>
</svg>
