<svg width="26" height="18" viewBox="0 0 26 18" fill="none" xmlns="http://www.w3.org/2000/svg">
<path d="M23.6704 0H3.06494C1.85488 0 0.867676 0.932123 0.867676 2.07692V15.9231C0.867676 17.064 1.85049 18 3.06494 18H23.6704C24.8774 18 25.8677 17.071 25.8677 15.9231V2.07692C25.8677 0.936 24.8849 0 23.6704 0ZM23.367 1.38462L13.4143 10.7923L3.37544 1.38462H23.367ZM2.33252 15.6364V2.35703L9.38716 8.96811L2.33252 15.6364ZM3.36831 16.6154L10.4274 9.94292L12.9009 12.2609C13.1872 12.5292 13.6493 12.5283 13.9344 12.2587L16.3462 9.97906L23.367 16.6154H3.36831ZM24.4028 15.6363L17.382 9L24.4028 2.36363V15.6363Z" fill="#1445A2" fill-opacity="0.5"/>
</svg>
