<svg width="26" height="16" viewBox="0 0 26 16" fill="none" xmlns="http://www.w3.org/2000/svg">
<path fill-rule="evenodd" clip-rule="evenodd" d="M13.3655 3.24357C14.3214 3.23963 15.2488 3.61807 15.9899 4.3144C16.7309 5.01074 17.2397 5.98188 17.4295 7.06238C17.6194 8.14287 17.4785 9.26585 17.0309 10.24C16.5834 11.2141 15.8568 11.9791 14.975 12.4046C14.0932 12.8302 13.1108 12.8899 12.1951 12.5736C11.2795 12.2574 10.4872 11.5847 9.95331 10.6703C9.41943 9.75582 9.17698 8.65614 9.26726 7.55862C9.35755 6.4611 9.77499 5.43364 10.4485 4.65131C10.8303 4.20651 11.2845 3.85316 11.7851 3.61157C12.2858 3.36997 12.8229 3.24491 13.3655 3.24357ZM1.08083 7.34947C1.72784 6.44284 2.42935 5.58984 3.18015 4.79677C6.10334 1.72791 9.42727 0.0878964 12.8692 0.0034323C16.3111 -0.0810318 19.8039 1.3924 23.1115 4.53634C24.0187 5.40374 24.8712 6.34461 25.6624 7.35181C25.7854 7.5115 25.8574 7.71477 25.8667 7.92806C25.8759 8.14134 25.8218 8.35189 25.7133 8.52493C24.8331 9.97207 23.7797 11.2683 22.5847 12.3751C20.0883 14.7019 16.9799 15.9802 13.7703 16C10.5376 15.9903 7.38879 14.812 4.76685 12.6308C3.36423 11.4817 2.11015 10.1088 1.04218 8.55308C0.922847 8.38024 0.861135 8.16381 0.868225 7.94302C0.875316 7.72222 0.950739 7.51165 1.08083 7.34947ZM4.26033 6.17635C3.71769 6.74504 3.20227 7.34734 2.71635 7.9806C3.59247 9.16288 4.59131 10.2164 5.69039 11.1175C8.04099 13.0763 10.8643 14.1372 13.7642 14.1512C16.6098 14.131 19.365 12.9959 21.5777 10.9322C22.4899 10.088 23.3096 9.11893 24.0188 8.0463C23.4105 7.31025 22.7652 6.61613 22.0863 5.96754C19.0858 3.11453 15.9368 1.78187 12.8916 1.8546C9.84632 1.92734 6.89465 3.40077 4.26033 6.16697V6.17635ZM12.3342 4.34864C12.6508 4.34864 12.9603 4.45694 13.2236 4.65983C13.4869 4.86272 13.6921 5.15111 13.8133 5.48851C13.9344 5.82591 13.9661 6.19717 13.9044 6.55535C13.8426 6.91354 13.6901 7.24255 13.4662 7.50078C13.2423 7.75902 12.9571 7.93488 12.6465 8.00612C12.336 8.07737 12.0141 8.0408 11.7215 7.90105C11.429 7.76129 11.179 7.52462 11.003 7.22097C10.8271 6.91732 10.7332 6.56032 10.7332 6.19512C10.733 5.95255 10.7742 5.7123 10.8546 5.48814C10.9349 5.26398 11.0528 5.0603 11.2015 4.88878C11.3503 4.71725 11.5269 4.58125 11.7212 4.48857C11.9156 4.39588 12.1239 4.34833 12.3342 4.34864Z" fill="#1445A2" fill-opacity="0.5"/>
</svg>
