<svg width="18" height="18" viewBox="0 0 18 18" fill="none" xmlns="http://www.w3.org/2000/svg">
<path d="M17.6625 16.1887L12.9375 11.434C12.7125 11.2075 12.375 11.0943 12.0375 11.0943C12.9375 9.96227 13.5 8.37736 13.5 6.79245C13.5 3.0566 10.4625 0 6.75 0C3.0375 0 0 3.0566 0 6.79245C0 10.5283 3.0375 13.5849 6.75 13.5849C8.325 13.5849 9.9 13.0189 11.025 12C11.025 12.3396 11.025 12.6792 11.3625 12.9057L16.0875 17.6604C16.3125 17.8868 16.65 18 16.875 18C17.1 18 17.4375 17.8868 17.6625 17.6604C18.1125 17.3208 18.1125 16.6415 17.6625 16.1887ZM6.75 11.8868C3.9375 11.8868 1.6875 9.62264 1.6875 6.79245C1.6875 3.96226 3.9375 1.69811 6.75 1.69811C9.5625 1.69811 11.8125 3.96226 11.8125 6.79245C11.8125 9.62264 9.5625 11.8868 6.75 11.8868Z" fill="#1445A2"/>
</svg>
