<svg width="16" height="16" viewBox="0 0 16 16" fill="none" xmlns="http://www.w3.org/2000/svg">
<path d="M15.7 14.3899L11.5 10.1635C11.3 9.96227 11 9.86164 10.7 9.86164C11.5 8.85535 12 7.44654 12 6.03774C12 2.71698 9.3 0 6 0C2.7 0 0 2.71698 0 6.03774C0 9.35849 2.7 12.0755 6 12.0755C7.4 12.0755 8.8 11.5723 9.8 10.6667C9.8 10.9686 9.8 11.2704 10.1 11.4717L14.3 15.6981C14.5 15.8994 14.8 16 15 16C15.2 16 15.5 15.8994 15.7 15.6981C16.1 15.3962 16.1 14.7925 15.7 14.3899ZM6 10.566C3.5 10.566 1.5 8.55346 1.5 6.03774C1.5 3.52201 3.5 1.50943 6 1.50943C8.5 1.50943 10.5 3.52201 10.5 6.03774C10.5 8.55346 8.5 10.566 6 10.566Z" fill="white"/>
</svg>
