<svg width="26" height="25" viewBox="0 0 26 25" fill="none" xmlns="http://www.w3.org/2000/svg">
<path fill-rule="evenodd" clip-rule="evenodd" d="M10.3057 14.4751C9.66488 13.9007 9.15829 13.4864 9.05046 12.2925H8.98128C8.82228 12.294 8.66573 12.253 8.52759 12.1736C8.29908 12.0285 8.12345 11.8125 8.0271 11.5582C7.79517 11.0228 7.6202 9.61772 8.19393 9.21568L8.0861 9.14183L8.07389 8.98594C8.05151 8.70287 8.04541 8.37056 8.03931 8.00134C8.01896 6.68034 7.99251 5.07627 6.9366 4.75627L6.48495 4.61884L6.78198 4.24551C7.56289 3.25014 8.44982 2.34422 9.42684 1.54402C10.4299 0.739937 11.4715 0.206613 12.4806 0.0486676C13.0071 -0.0383792 13.5461 -0.00839638 14.0599 0.136519C14.5737 0.281434 15.0498 0.537781 15.4551 0.887626C15.7472 1.1285 16.0144 1.39859 16.2526 1.69377C16.7248 1.74603 17.1809 1.89798 17.591 2.13972C18.0011 2.38146 18.3561 2.70757 18.633 3.09682C18.9842 3.57082 19.2468 4.10534 19.4081 4.67422C19.5754 5.25464 19.6442 5.85938 19.6116 6.46291C19.5796 7.55204 19.1382 8.58819 18.3766 9.36132C18.5106 9.36401 18.6421 9.3977 18.7611 9.45978C19.2006 9.69772 19.2148 10.2126 19.0989 10.6454C18.9849 11.0044 18.8405 11.4249 18.7042 11.7756C18.5374 12.2515 18.2973 12.3397 17.8253 12.2884C17.8009 13.4618 17.2617 13.7858 16.5374 14.4751C16.568 16.2432 10.263 16.0361 10.3017 14.4751H10.3057ZM9.97819 15.9335L11.854 21.398L12.796 18.1919L12.3362 17.6832C11.9883 17.1704 12.1083 16.5899 12.7431 16.4853C12.9749 16.4619 13.2083 16.4571 13.4409 16.4709C13.6969 16.4546 13.9539 16.4642 14.2079 16.4996C14.8061 16.633 14.8691 17.2176 14.5701 17.6832L14.1082 18.1919L15.0502 21.398L16.7572 15.9335C17.9779 17.0432 22.2931 17.2668 23.6419 18.0258C25.5096 19.0801 25.4587 23.1088 25.8677 25H0.867676C1.27458 23.1313 1.23185 19.0699 3.09342 18.0258C4.75155 17.0945 8.62118 17.1663 9.97819 15.9335Z" fill="#1445A2" fill-opacity="0.5"/>
</svg>
